<svg id="Ebene_1" data-name="Ebene 1" xmlns="http://www.w3.org/2000/svg" xmlns:xlink="http://www.w3.org/1999/xlink" width="298.3" height="59.1" viewBox="0 0 298.3 59.1">
  <defs>
    <style>
      .cls-1 {
        fill: none;
      }

      .cls-2 {
        clip-path: url(#clip-path);
      }

      .cls-3 {
        fill: #fff;
      }
    </style>
    <clipPath id="clip-path" transform="translate(-1.3 -0.2)">
      <rect class="cls-1" x="1.3" y="0.2" width="298.3" height="59.14"/>
    </clipPath>
  </defs>
  <g class="cls-2">
    <path class="cls-3" d="M299.3,51.2h-1.1L295.7,55l-2.6-3.8H292l3.2,4.7v3.4h.9V55.9Zm-13.1.9c1.2,0,1.9.4,1.9,1.4s-.6,1.4-1.9,1.4H284V52.1Zm-3.1-.9v8.1h.9V55.7h1l2.9,3.6H289l-2.9-3.6h.2c1.7,0,2.8-.8,2.8-2.2s-1-2.3-2.9-2.3Zm-8.4.8a3.3,3.3,0,1,1-3.2,3.2,3.1,3.1,0,0,1,3.2-3.2m0-.9a4,4,0,0,0-4.2,4.1,4.2,4.2,0,1,0,8.4,0,4,4,0,0,0-4.2-4.1m-8,.9a5.3,5.3,0,0,0-2.9-.9c-1.7,0-3.1.9-3.1,2.4s1,2,2.4,2.1h.8c1.3.1,2,.5,2,1.3s-1,1.5-2.3,1.5a4.1,4.1,0,0,1-2.6-.9l-.5.7a5.3,5.3,0,0,0,3.1,1.1c1.8,0,3.2-.9,3.2-2.5s-1.2-1.9-2.5-2.1h-.8c-1.2-.1-1.8-.5-1.8-1.3s.8-1.4,2.1-1.4a4.8,4.8,0,0,1,2.4.7Zm-10.4-.8h-1v8.1h1Zm-4.7,0h-1l-2.8,7.1L245,51.2h-1l3.2,8.1h1.2Zm-15,.9c2.2,0,3.3,1.2,3.3,3.1a3,3,0,0,1-3.3,3.2h-2.1V52.1Zm-3-.9v8.1h3a3.9,3.9,0,0,0,4.3-4.1c0-2.4-1.7-4-4.3-4Zm-7.7.9,1.7,4h-3.3Zm.6-.9h-1.1l-3.3,8.1h.9l1-2.3h3.9l1,2.3h.9Zm-14.6,2.2a1.3,1.3,0,0,0,0,2.6,1.3,1.3,0,0,0,0-2.6M200.8,52a4.8,4.8,0,0,0-2.9-.9c-1.7,0-3,.9-3,2.4s1,2,2.4,2.1h.8c1.2.1,1.9.5,1.9,1.3s-1,1.5-2.2,1.5a4.4,4.4,0,0,1-2.7-.9l-.5.7a5.6,5.6,0,0,0,3.2,1.1c1.7,0,3.2-.9,3.2-2.5s-1.2-1.9-2.5-2.1h-.8c-1.3-.1-1.9-.5-1.9-1.3s.9-1.4,2.1-1.4a4.9,4.9,0,0,1,2.5.7Zm-9.4-.8h-6.5v.9h2.8v7.2h.9V52.1h2.8Zm-13.1-.1a4,4,0,0,0-4.2,4.1,4.1,4.1,0,0,0,4.2,4.2,4,4,0,0,0,3.3-1.7l-.8-.5a2.9,2.9,0,0,1-2.5,1.3,3.3,3.3,0,0,1,0-6.5,2.9,2.9,0,0,1,2.5,1.3l.8-.5a3.8,3.8,0,0,0-3.3-1.7m-8.1,7.3h-4.8V55.6H170v-.8h-4.6V52.1h4.7v-.9h-5.6v8.1h5.7Zm-10.3-7.2H159v5.1c0,1.4-.8,2.2-1.9,2.2a2.3,2.3,0,0,1-1.9-.9l-.6.6a2.9,2.9,0,0,0,2.5,1.2,2.7,2.7,0,0,0,2.8-3Zm-12.5.8a3.3,3.3,0,1,1-3.2,3.2,3.1,3.1,0,0,1,3.2-3.2m0-.9a4,4,0,0,0-4.2,4.1,4.1,4.1,0,0,0,4.2,4.2,4,4,0,0,0,4.1-4.2,3.9,3.9,0,0,0-4.1-4.1m-10.7,1c1.2,0,1.9.4,1.9,1.4s-.7,1.4-1.9,1.4h-2.2V52.1Zm-3.1-.9v8.1h.9V55.7h1l2.8,3.6h1.2l-2.9-3.6h.1c1.7,0,2.8-.8,2.8-2.2s-1-2.3-2.8-2.3Zm-7,.9c1.2,0,1.9.5,1.9,1.5s-.7,1.5-1.9,1.5h-2.1v-3Zm0,3.9c1.8,0,2.8-.9,2.8-2.4s-1-2.4-2.8-2.4h-3v8.1h.9V56Zm-14.4-2.6a1.3,1.3,0,1,0,1.3,1.3,1.3,1.3,0,0,0-1.3-1.3m-11.1,5H96.4V55.6h4.5v-.8H96.4V52.1H101v-.9H95.4v8.1h5.7Zm-9.4-7.2H85.2v.9H88v7.2h.9V52.1h2.8Zm-12.6.9,1.6,4H77.5Zm.6-.9H78.5l-3.3,8.1h1l.9-2.3h4l.9,2.3h1Zm-6.6,0H66.6v.9h2.8v7.2h.9V52.1h2.8Zm-10,.8a4.8,4.8,0,0,0-2.9-.9c-1.7,0-3,.9-3,2.4s1,2,2.4,2.1h.8c1.2.1,1.9.5,1.9,1.3s-1,1.5-2.2,1.5a4.4,4.4,0,0,1-2.7-.9l-.5.7a5.6,5.6,0,0,0,3.2,1.1c1.7,0,3.2-.9,3.2-2.5s-1.2-1.9-2.5-2.1H60c-1.3-.1-1.9-.5-1.9-1.3S59,52,60.2,52a4.3,4.3,0,0,1,2.4.7ZM52.9,58.4H48.2V55.6h4.5v-.8H48.2V52.1h4.7v-.9H47.3v8.1h5.6Zm-14.4,0H33.8V51.2h-.9v8.1h5.6ZM25.3,52.1l1.6,4H23.6Zm.5-.9H24.7l-3.3,8.1h.9l1-2.3h3.9l1,2.3h.9Zm-7.9,7.2H13.2V55.6h4.5v-.8H13.2V52.1h4.6v-.9H12.2v8.1h5.7ZM5.2,52.1c1.2,0,1.9.4,1.9,1.4s-.6,1.4-1.9,1.4H3V52.1Zm-3.1-.9v8.1H3V55.7H4l2.9,3.6H8L5.1,55.7h.2c1.7,0,2.8-.8,2.8-2.2s-1-2.3-2.8-2.3Z" transform="translate(-1.3 -0.2)"/>
    <path class="cls-3" d="M30.2,8.7l4.1-1.4C30.7,2.6,25.5.2,18.7.2A18.8,18.8,0,0,0,6.8,3.9,12.6,12.6,0,0,0,1.3,14.6,13.1,13.1,0,0,0,6.7,25.4a19.4,19.4,0,0,0,12,3.6,21.6,21.6,0,0,0,8.8-1.6,16.3,16.3,0,0,0,6.6-4.9l-3.9-2.1c-2.7,3-6.5,4.4-11.3,4.4s-7.1-.9-9.4-2.8A9,9,0,0,1,6,14.6,9.4,9.4,0,0,1,9.5,7.2a14.3,14.3,0,0,1,9.2-2.9c4.9,0,8.8,1.5,11.5,4.4m41.3,5.9A9,9,0,0,1,68.1,22a14.2,14.2,0,0,1-9.3,2.9A14.6,14.6,0,0,1,49.5,22a8.9,8.9,0,0,1-3.4-7.4,8.8,8.8,0,0,1,3.5-7.3,13.9,13.9,0,0,1,9.2-3,14.3,14.3,0,0,1,8.7,2.6,9.1,9.1,0,0,1,4,7.7m4.7,0A12.9,12.9,0,0,0,70.7,3.9,19.2,19.2,0,0,0,58.8.2,19.6,19.6,0,0,0,46.9,3.9a12.9,12.9,0,0,0-5.5,10.7,13.1,13.1,0,0,0,5.4,10.8,19.4,19.4,0,0,0,12,3.6c4.8,0,8.8-1.2,11.9-3.6a12.7,12.7,0,0,0,5.5-10.8m29-.8H89V5.1h15.8c3.7,0,5.6,1.5,5.6,4.5s-1.8,4.2-5.2,4.2m10,14.4-7.3-10.6a8.2,8.2,0,0,0,5.1-2.4,8,8,0,0,0,2-5.6,7.9,7.9,0,0,0-2.5-6.2,9.4,9.4,0,0,0-6.7-2.3H84.5V28.2H89V17.9h13.6L110,28.2Zm9.3,0h28.4v-4H129V16.1h13.5l2.3-4H129v-7h22.9v-4H124.5Zm37.9,0h25.4v-4H166.9V1.1h-4.5Zm33.2,0H224v-4H200.1V16.1h13.5l2.3-4H200.1v-7H223v-4H195.6Zm66.7-8.8V1.1h-4.5V18.4a5.3,5.3,0,0,1-2.7,4.8c-1.9,1.2-4.6,1.7-8.1,1.7s-6.3-.5-8.1-1.7a5.2,5.2,0,0,1-2.8-4.8V1.1h-4.5V19.4c0,2.8,1.4,5.1,4.1,6.9S242.3,29,247,29s8.4-.9,11.2-2.7a7.9,7.9,0,0,0,4.1-6.9m12-11.3c0-1.2.8-2.1,2.2-2.7a15.6,15.6,0,0,1,6.4-1,27.1,27.1,0,0,1,12.2,3l2-3.5A26.3,26.3,0,0,0,283.2.4c-4.3,0-7.7.8-10.1,2.2a7,7,0,0,0-3.5,6.1,5.3,5.3,0,0,0,3.1,5.2c1.8.9,4.9,1.5,9.4,1.8a83,83,0,0,1,9.3,1c2.2.5,3.3,1.7,3.3,3.4a3.8,3.8,0,0,1-2.5,3.5,16.6,16.6,0,0,1-7.4,1.3A25.6,25.6,0,0,1,271.1,21l-.3.4L269,24.5c3.8,2.9,9.1,4.3,15.8,4.3,4.7,0,8.4-.7,10.9-2.3a7.4,7.4,0,0,0,3.9-6.7,6,6,0,0,0-2.5-5.2c-1.6-1.2-4.1-2-7.5-2.5l-7.4-.6a19.4,19.4,0,0,1-5.5-.8c-1.6-.6-2.4-1.4-2.4-2.6" transform="translate(-1.3 -0.2)"/>
  </g>
</svg>
